<svg width="448" height="512" viewBox="0 0 448 512" fill="none" xmlns="http://www.w3.org/2000/svg">
<path d="M275.772 435.772L275.76 435.783L275.749 435.794C270.346 441.285 263.194 444 256 444C248.818 444 241.67 441.267 236.211 435.799L236.209 435.797C225.271 424.859 225.271 407.142 236.208 396.204C236.208 396.204 236.208 396.204 236.209 396.204L341.628 290.829L348.46 284H338.8H32.0001C16.5371 284 4.00171 271.489 4.00171 256C4.00171 240.511 16.5371 228 32.0001 228H338.8H348.457L341.629 221.172L236.229 115.772C225.291 104.834 225.291 87.1164 236.229 76.1785C247.166 65.2406 264.884 65.2406 275.822 76.1785L435.81 236.167C435.812 236.169 435.814 236.171 435.816 236.173C446.716 247.166 446.706 264.838 435.772 275.772L275.772 435.772Z" stroke="black" stroke-width="8"/>
</svg>
