<svg width="448" height="512" viewBox="0 0 448 512" fill="none" xmlns="http://www.w3.org/2000/svg">
<path d="M109.3 284H99.6432L106.472 290.828L211.872 396.228C222.808 407.165 222.809 424.88 211.875 435.818C206.357 441.289 199.186 444 192 444C184.818 444 177.67 441.267 172.211 435.799L172.208 435.797L12.2084 275.797C1.27053 264.859 1.27053 247.141 12.2084 236.203L172.208 76.2034C183.146 65.2655 200.864 65.2655 211.802 76.2034C222.739 87.1413 222.739 104.859 211.802 115.797L211.801 115.797L106.471 221.172L99.6461 228H109.3H416C431.343 228 443.1 240.358 443.1 256C443.1 271.642 431.343 284 416 284H109.3Z" stroke="black" stroke-width="8"/>
</svg>
