<svg width="448" height="512" viewBox="0 0 448 512" fill="none" xmlns="http://www.w3.org/2000/svg">
<path d="M252 49.88V53.2951L255.373 53.8305C325.962 65.0372 380 126.199 380 200V233.4C380 279.71 395.81 324.688 424.672 360.893L424.678 360.901L439.578 379.501L439.585 379.509C444.41 385.499 445.331 393.745 441.997 400.663C438.66 407.587 431.656 412 424 412H24.0002C16.3106 412 9.30428 407.584 5.97324 400.665L5.97307 400.664C2.64457 393.753 3.58012 385.501 8.3812 379.502C8.38129 379.502 8.38138 379.502 8.38148 379.502C8.38192 379.501 8.38237 379.5 8.38281 379.5L23.2912 360.902L23.2949 360.897C52.2311 324.689 68.0002 279.708 68.0002 233.4V200C68.0002 126.199 122.038 65.0372 192.627 53.8305L196 53.2951V49.88V32C196 16.5367 208.512 4 224 4C239.489 4 252 16.5367 252 32V49.88ZM68.9491 365.831L64.9688 372H72.3102H375.7H383.04L379.062 365.832C353.675 326.473 340 280.525 340 233.4V200C340 140.391 291.609 92 232 92H216C156.391 92 108 140.391 108 200V233.4C108 280.526 94.3444 326.474 68.9491 365.831ZM283.855 452C282.853 465.884 276.707 480.236 266.472 490.472C255.249 501.694 239.078 508 224 508C208.052 508 192.772 501.715 181.529 490.472C171.293 480.236 165.148 465.884 164.146 452H283.855Z" stroke="black" stroke-width="8"/>
</svg>
