<svg width="640" height="512" viewBox="0 0 640 512" fill="none" xmlns="http://www.w3.org/2000/svg">
<path d="M416 176C416 78.8 325.9 3 211 3C96.1 3 3.00002 81.8 3.00002 179C3.00002 218.57 18.62 254.96 44.67 284.4C28.28 317.16 5.44002 341.72 5.08002 342.08C2.98002 344.285 2.41002 347.555 3.63902 350.434C4.90002 353.3 4.60202 352 7.66002 352C46.01 352 81.42 343.88 106.4 330.96C137.2 346.1 169.8 352 208 352C322.9 352 416 273.2 416 176ZM272.8 221.3C269.2 242.2 253.4 255.1 231 260.7V271C231 282.03 222.047 291 211 291C199.953 291 191 282.031 191 271V260.2C182.318 258.278 173.7 255.477 165.94 252.688L161.674 251.188C151.3 247.5 145.8 236.1 149.5 225.7C153.188 215.29 164.61 209.89 175.02 213.48L179.489 215.105C187.333 217.917 196.209 221.105 203.149 222.136C216.8 224.3 232 222.3 233.4 214.5C234.3 209.4 234.8 206.6 205.5 198.2L199.7 196.5C182.37 191.406 141.78 179.5 149.18 136.66C152.8 115.8 168.6 101.76 191 96.99V87C191 75.97 199.953 67 211 67C222.047 67 231 75.969 231 87V97.63C236.453 98.825 242.34 100.419 249.56 102.903C260 106.5 265.5 117.9 261.9 128.4C258.3 138.8 246.8 144.3 236.4 140.7C230.541 138.669 224.4 136.7 218.81 135.856C205.2 133.8 189.1 135.7 188.6 143.5C187.8 147.1 187.3 151.2 210.1 158.2L216.5 159.8C238.8 166.1 280.3 178 272.8 221.3ZM594.6 438.7C619.8 408.9 635 371.6 635 331C635 233.8 554 160 448 160C447.686 160 447.381 160.041 447.066 160.043C447.5 165.3 448 170.6 448 176C448 274.62 368.32 357.2 261.9 378.5C282.7 455.1 352.1 507 443 507C476.69 507 508.32 498.992 535.85 485.02C560.2 497 591.1 507 627.3 507C630.359 507 633.06 505.275 634.32 502.395C635.549 499.516 634.978 496.247 632.879 494.041C632.6 493.7 610.9 470.3 594.6 438.7Z" stroke="#999999" stroke-width="4"/>
</svg>
