<svg width="576" height="512" viewBox="0 0 576 512" fill="none" xmlns="http://www.w3.org/2000/svg">
<path d="M564.1 197.3L545.48 173.68C540.947 169.147 534.92 166.651 528.51 166.651C522.1 166.651 516.07 169.147 511.54 173.68L505.886 179.336L485.766 159.216C490.362 135.756 483.114 111.316 466.296 94.486L421.046 49.236C390.2 17.47 347.1 2 303.1 2C258.2 2 217 17.47 185.3 49.21L177.5 57.05L272.5 105.1V118.91C272.5 137.86 280.188 154.41 293.59 167.82L342.75 216.96C356.19 230.41 374.14 237.82 393.29 237.82C398.048 237.82 402.802 237.355 407.47 236.433L427.59 256.553L421.936 262.207C412.579 271.564 412.579 286.787 421.934 296.147L444.554 318.767C449.089 323.3 455.114 325.798 461.524 325.798C467.934 325.798 473.964 325.3 478.494 320.767L565.024 230.267C574.3 220.8 574.3 206.6 564.1 197.3ZM270.9 190.4C267.054 186.554 263.703 182.287 260.53 177.91L23.0299 385.11C-3.09007 412.23 -0.130074 458.83 22.9928 486.91C39.1199 498 55.5599 503 73.0999 505C94.6399 503 109.94 500.969 124.01 486.91L331.11 249.51C326.969 246.449 322.926 243.221 319.22 239.514L270.9 190.4Z" stroke="#999999" stroke-width="4"/>
</svg>
