<svg width="726" height="726" viewBox="0 0 726 726" fill="none" xmlns="http://www.w3.org/2000/svg">
<g style="mix-blend-mode:darken">
<path d="M46.2967 408.815C21.2563 383.863 21.1847 343.346 46.1366 318.306L249.423 114.299C274.339 89.2939 314.892 89.1869 339.932 114.139L385.267 159.314C410.272 184.23 410.344 224.818 385.427 249.823L182.141 453.83C157.189 478.87 116.637 478.907 91.6316 453.99L46.2967 408.815ZM363.24 498.764C350.702 486.271 350.667 466.047 363.16 453.51L351.826 442.216C320.517 411.017 320.428 360.388 351.626 329.079L453.269 227.076C465.763 214.538 465.727 194.314 453.189 181.821L366.387 95.3254C402.052 78.2068 446.087 84.3939 475.697 113.899L498.364 136.486C535.907 173.896 536.015 234.707 498.604 272.25L396.961 374.254C390.75 380.487 390.768 390.67 397.001 396.881L408.335 408.175C420.828 395.637 441.052 395.601 453.59 408.095L544.259 498.444C556.797 510.938 556.833 531.161 544.339 543.699L499.165 589.034C486.671 601.572 466.448 601.607 453.91 589.114L363.24 498.764Z" stroke="#999999" stroke-width="4"/>
</g>
</svg>
