<svg width="512" height="512" viewBox="0 0 512 512" fill="none" xmlns="http://www.w3.org/2000/svg">
<g clip-path="url(#clip0_7_4)">
<path d="M508.2 387L485.95 487.8C482.684 502.05 470.16 505.02 455.49 505.02C203.2 505 3 308.8 3 56.5C3 41.84 12.969 29.3 27.22 26.05L125.02 2.80003C139.7 -0.601973 154.7 7.01803 160.8 20.92L207.32 129.42C212.758 142.2 209.09 157.09 198.34 165.87L144.5 207.1C178.48 276.32 232.76 332.6 302 366.6L346.08 312.8C354.768 302.02 369.77 298.29 382.55 303.825L490.05 350.335C503.1 357.2 511.6 372.4 508.2 387Z" stroke="#999999" stroke-width="4"/>
</g>
<defs>
<clipPath id="clip0_7_4">
<rect width="512" height="512" fill="white"/>
</clipPath>
</defs>
</svg>
