<svg width="518" height="518" viewBox="0 0 518 518" fill="none" xmlns="http://www.w3.org/2000/svg">
<path d="M334.8 227.102C363.09 227.102 389.68 238.092 409.66 258.072L429.25 277.662C469.26 259.922 500.5 224.362 510.87 181.012C516.595 157.092 516.21 133.932 511.085 112.612C508.472 101.732 494.655 98.1015 486.745 106.008L417.845 174.908H342.245V100.202L411.145 31.3015C419.057 23.3895 415.42 9.57153 404.541 6.96153C383.221 1.83653 360.061 1.45153 336.141 7.17633C280.841 20.4063 237.751 67.3963 228.941 123.576C227.5 131.902 227.2 140.002 227.3 148.002L310.08 230.862C318.2 228.102 326.5 227.102 334.8 227.102ZM387 281.602C363.84 258.442 329.43 254.032 301.61 267.702L194.1 161.002V98.9915L67 3.00153L3 66.1015L99 193.202L161.04 193.209L267.74 299.809C254.07 327.629 258.489 362.039 281.65 385.199L398.65 502.299C413.27 516.799 436.86 516.799 451.36 502.298L504.11 449.548C518.61 435.048 518.61 411.468 504.108 396.838L387 281.602ZM230.9 310.002L171.7 250.902L22.8 399.802C-3.57 426.172 -3.57 468.882 22.8 495.252C35.96 508.402 53.21 515.002 70.5 515.002C87.79 515.002 105.04 508.41 118.22 495.222L237.32 376.122C228.5 355.302 225.6 332.402 230.9 310.002ZM67 475.002C53.75 475.002 43 464.252 43 451.002C43 437.742 53.75 427.002 67 427.002C80.25 427.002 91 437.702 91 451.002C91 464.302 80.25 475.002 67 475.002Z" stroke="#999999" stroke-width="4" style="mix-blend-mode:darken"/>
</svg>
