<svg width="512" height="512" viewBox="0 0 512 512" fill="none" xmlns="http://www.w3.org/2000/svg">
<path d="M498.6 182.6L453.35 137.35C447.4 131.4 439.3 128 430.8 128H384V80C384 53.5 362.5 32 336 32H176C149.5 32 128 53.5 128 80V128H81.25C72.75 128 64.63 131.375 58.63 137.375L13.375 182.6C7.375 188.6 4 196.8 4 205.3V304H128V272C128 263.1 135.1 256 144 256H176C184.9 256 192 263.1 192 272V304H320V272C320 263.1 327.1 256 336 256H368C376.9 256 384 263.1 384 272V304H508V205.3C508 196.8 504.6 188.6 498.6 182.6ZM336 128H176V80H336V128ZM384 365C384 373.875 376.875 381 368 381H336C327.125 381 320 373.875 320 365V333H192V365C192 373.9 184.9 381 176 381H144C135.1 381 128 373.9 128 365V333H4V445C4 462.62 18.38 477 36 477H476C493.62 477 508 462.62 508 445V333H384V365Z" stroke="#999999" stroke-width="4"/>
</svg>
