<svg width="640" height="512" viewBox="0 0 640 512" fill="none" xmlns="http://www.w3.org/2000/svg">
<path d="M513 163C557.18 163 593 127.18 593 83C593 38.82 557.2 3 513 3C468.82 3 433 38.82 433 83C433 127.18 468.8 163 513 163ZM129 163C173.18 163 209 127.18 209 83C209 38.82 173.2 3 129 3C84.82 3 49 38.82 49 83C49 127.18 84.82 163 129 163ZM319.9 320C377.31 320 424 276.44 424 219C424 161.56 377.46 115 320.9 115C263.49 115 217.8 161.56 217.8 219C216.9 276.4 262.5 320 319.9 320ZM368 400C368 384.242 371.029 369.304 375.762 355.144C376.182 353.885 375.303 352.536 373.987 352.364C372.636 352.187 371.305 352 369.9 352H270.1C191.6 352 128 411.7 128 485.3C128 500.1 140.7 506 156.4 506H416.798C418.689 506 419.539 503.596 418.097 502.373C387.601 476.494 368 443.444 368 400ZM184.9 219C184.9 214.012 185.723 209.249 186.343 204.429C186.447 203.62 186.042 202.83 185.319 202.454C174.73 196.951 163.14 195 150.9 195H92.08C43.44 195 4 236.8 4 288.3C4 298.6 10.887 304 20.62 304H212.769C214.478 304 215.408 301.985 214.33 300.659C195.629 277.631 184.9 251.134 184.9 219ZM544.9 195H490.06C477.762 195 466.129 197.803 455.498 202.638C454.719 202.992 454.264 203.812 454.371 204.66C454.972 209.423 455.8 214.087 455.8 219C455.8 238.126 451.336 256.014 443.981 272.388C443.171 274.192 445.189 276.11 446.948 275.205C466.552 265.118 488.449 259 512 259C554.158 259 583.817 274.502 610 303.336C610.381 303.756 610.924 304 611.491 304H614.356C624.1 304 633 298.6 633 288.3C633 236.8 593.6 195 544.9 195ZM618.239 366.928C618.15 366.775 618.073 366.614 618.02 366.445C612.984 350.535 604.451 336.016 593.35 323.99C591.676 322.129 588.883 321.664 586.651 322.967L568.703 333.332C567.97 333.755 567.052 333.669 566.399 333.132C558.924 326.976 550.462 322.074 541.363 318.699C540.567 318.403 540.031 317.649 540.031 316.801V298.1C540.031 295.586 538.17 293.354 535.75 292.887C519.358 289.202 502.593 289.256 486.911 292.778C486.595 292.849 486.3 292.995 486.063 293.216C484.627 294.559 483.1 296.626 483.1 298.1V315.924C483.1 316.772 482.564 317.526 481.768 317.821C472.668 321.195 464.201 326.098 456.73 332.256C456.078 332.793 455.161 332.879 454.429 332.458L436.39 322.09C434.251 320.787 431.458 321.252 429.693 323.113C418.523 335.213 409.963 349.823 405.033 365.823C404.289 368.335 405.312 370.94 407.453 372.149L425.416 382.615C426.141 383.038 426.523 383.868 426.388 384.697C424.842 394.228 424.842 404.041 426.389 413.582C426.523 414.41 426.141 415.24 425.416 415.662L407.453 426.129C405.219 427.338 404.289 429.945 405.033 432.457C409.965 448.467 418.523 462.977 429.693 475.167C431.459 477.03 434.16 477.495 436.39 476.192L454.429 465.824C455.162 465.403 456.078 465.489 456.729 466.026C464.204 472.182 472.669 477.085 481.768 480.46C482.564 480.756 483.1 481.51 483.1 482.358V497.182C483.1 499.696 484.87 501.928 487.288 502.393C503.948 506.116 520.788 506.022 536.608 502.393C539.028 501.928 540.889 499.696 540.889 497.182V482.359C540.889 481.51 541.426 480.756 542.221 480.461C551.32 477.089 559.786 472.185 567.257 466.028C567.91 465.49 568.828 465.405 569.561 465.828L587.509 476.192C589.65 477.495 592.534 477.03 594.208 475.167C605.378 463.067 613.938 448.467 618.958 432.457C619.702 429.945 618.681 427.338 616.446 426.129L598.495 415.669C597.764 415.243 597.382 414.404 597.524 413.571C599.146 404.045 599.146 394.233 597.524 384.707C597.382 383.874 597.764 383.035 598.495 382.609L616.119 372.339C616.335 372.214 616.575 372.137 616.816 372.069C618.741 371.524 619.556 369.214 618.239 366.928ZM512 432C494.33 432 480 417.67 480 400C480 382.33 494.33 368 512 368C529.67 368 544 382.33 544 400C544 417.7 529.7 432 512 432Z" stroke="#999999" stroke-width="4"/>
</svg>
